<?xml version="1.0" standalone="no"?>
<!DOCTYPE svg PUBLIC "-//W3C//DTD SVG 20010904//EN"
 "http://www.w3.org/TR/2001/REC-SVG-20010904/DTD/svg10.dtd">
<svg version="1.0" xmlns="http://www.w3.org/2000/svg"
 width="512.000000pt" height="512.000000pt" viewBox="0 0 512.000000 512.000000"
 preserveAspectRatio="xMidYMid meet">

<g transform="translate(0.000000,512.000000) scale(0.100000,-0.100000)"
fill="#000000" stroke="none">
<path d="M1099 4469 c-208 -31 -371 -175 -436 -384 -17 -57 -18 -131 -18
-1525 0 -1394 1 -1468 18 -1525 57 -186 186 -315 372 -372 57 -17 131 -18
1525 -18 1394 0 1468 1 1525 18 187 58 314 185 372 372 17 57 18 131 18 1525
0 1394 -1 1468 -18 1525 -57 184 -180 309 -367 371 -52 18 -126 19 -1495 20
-792 1 -1465 -2 -1496 -7z m543 -641 c53 -16 121 -78 149 -135 35 -72 32 -173
-6 -249 -83 -162 -315 -191 -438 -54 -51 56 -67 103 -67 191 1 153 107 259
259 259 35 0 81 -5 103 -12z m178 -1638 l0 -910 -270 0 -270 0 0 910 0 910
270 0 270 0 0 -910z m850 774 l0 -136 45 60 c115 153 312 229 535 204 262 -28
440 -160 530 -394 57 -146 60 -192 60 -834 l0 -584 -270 0 -269 0 -3 548 c-3
543 -3 547 -26 603 -49 121 -152 197 -281 207 -129 9 -231 -51 -290 -170 l-31
-61 0 -564 0 -563 -270 0 -270 0 0 910 0 910 270 0 270 0 0 -136z"/>
</g>
</svg>
